# xmcd
#
# Track frame offsets:
#	150
#	9607
#	22043
#	38641
#	51090
#	61312
#	69970
#	81097
#	94956
#	105101
#	117029
#	130910
#	143807
#	157676
#	168681
#	182331
#	195671
#	206193
#	217055
#	229906
#
# Disc length: 3233 seconds
#
# Revision: 0
# Processed by: cddbd v1.5.2PL0 Copyright (c) Steve Scherf et al.
# Submitted via: EasyCDDAExtractor 2011.0.0.0
#
DISCID=0d0c9f14
DTITLE=Various Artist - I'm Moving On
DYEAR=1998
DGENRE=Country
TTITLE0=Patsy Cline - I'm Moving On
TTITLE1=Bill Anderson - I Love You Drops
TTITLE2=Merle Haggard - Daddy Frank (The Guitar Man)
TTITLE3=Jerry Wallace - Shutters And Boards
TTITLE4=Mickey Gilley - What Am I Living For
TTITLE5=Roger Miller - England Swings
TTITLE6=Conway Twitty - Hello Darlin'
TTITLE7=The Kendalls - Crying Time
TTITLE8=Patsy Cline - Three Cigarettes In An Ashtray
TTITLE9=Bill Anderson - Three A.M.
TTITLE10=Merle Haggard - I Threw Away The Rose
TTITLE11=Jerry Wallace - The Morning After
TTITLE12=Micky Gilley - Rockin' My Life Away
TTITLE13=Roger Miller - King Of The Road
TTITLE14=Conway Twitty - Baby's Gone
TTITLE15=The Kendalls - Pittsburgh Steelers
TTITLE16=Patsy Cline - Lovesick Blues
TTITLE17=Bill Anderson - Quits
TTITLE18=Merle Haggard - The Fightin' Side Of Me
TTITLE19=Bobby Bare - Tender Years
EXTD=
EXTT0=
EXTT1=
EXTT2=
EXTT3=
EXTT4=
EXTT5=
EXTT6=
EXTT7=
EXTT8=
EXTT9=
EXTT10=
EXTT11=
EXTT12=
EXTT13=
EXTT14=
EXTT15=
EXTT16=
EXTT17=
EXTT18=
EXTT19=
PLAYORDER=
